<svg width="195" height="118" viewBox="0 0 195 118" fill="none" xmlns="http://www.w3.org/2000/svg">
<rect x="69.0671" y="20.5142" width="98.6674" height="98.6674" rx="24" transform="rotate(-12 69.0671 20.5142)" fill="white"/>
<path d="M119.478 64.8224C119.478 64.8258 119.482 64.8285 119.483 64.8319C119.064 64.2285 118.685 63.5845 118.344 62.8828C118.345 62.8862 118.345 62.8862 118.349 62.8889C118.692 63.5974 119.062 64.2217 119.478 64.8224Z" fill="#01259B"/>
<path d="M145.223 42.642C145.223 42.6454 145.22 42.6461 145.221 42.6495C145.154 42.9017 145.049 43.1441 144.908 43.3659C145.052 43.14 145.156 42.8976 145.223 42.642Z" fill="#01259B"/>
<path d="M119.274 81.237L119.279 81.2398L119.282 81.2354L119.277 81.2326L119.274 81.237Z" fill="#01259B"/>
<path d="M150.622 54.6155C150.433 54.5599 150.246 54.5179 150.053 54.5093C149.822 54.4944 149.581 54.4959 149.35 54.545L141.193 56.2967C140.591 56.4246 140.087 56.7733 139.73 57.2361C139.491 57.5463 139.366 57.9422 139.284 58.3288C139.242 58.5153 139.204 58.7011 139.212 58.891C139.231 59.5796 139.192 60.2341 139.096 60.8511C139.078 60.9188 139.078 61.0005 139.06 61.0682C138.961 61.6682 138.828 62.2469 138.641 62.8016C138.235 63.9994 137.593 65.0734 136.741 65.9931C136.69 66.0537 136.635 66.0973 136.594 66.138C136.235 66.5054 135.825 66.8483 135.395 67.1811C135.286 67.2683 135.173 67.3562 135.047 67.4326C134.526 67.785 133.971 68.1303 133.354 68.4211C132.622 68.7685 131.891 69.0376 131.174 69.2397C130.807 69.3354 130.456 69.4241 130.08 69.4723C128.272 69.7747 126.483 69.6082 124.744 68.9445C124.216 68.7335 123.723 68.469 123.232 68.2003C123.415 68.3072 123.587 68.4304 123.77 68.5229L119.281 81.2351C119.434 81.2878 119.576 81.3535 119.732 81.402C126.051 83.365 132.283 82.8784 138.53 79.8887C139.173 79.5744 139.814 79.2465 140.416 78.9088C144.658 76.4909 147.874 73.1971 150.066 69.006C151.233 66.7587 151.989 64.4708 152.332 62.1394C152.346 62.0548 152.36 61.9735 152.374 61.8889C152.452 61.116 152.525 60.3262 152.531 59.5189C152.536 59.39 152.53 59.2777 152.534 59.1489C152.54 58.3415 152.492 57.5137 152.4 56.6952C152.28 55.6659 151.55 54.8871 150.622 54.6155Z" fill="#01259B"/>
<path d="M123.758 68.5503C123.562 68.4641 123.406 68.3338 123.221 68.2277C122.964 68.0904 122.707 67.9355 122.464 67.7742C122.123 67.5412 121.796 67.2877 121.496 67.014C121.28 66.8326 121.064 66.6547 120.862 66.4561C120.533 66.1249 120.233 65.7661 119.944 65.3942C119.789 65.1999 119.624 65.0254 119.487 64.8308C119.486 64.8274 119.482 64.8248 119.482 64.8214C119.066 64.2207 118.696 63.5964 118.35 62.8886C118.349 62.8852 118.349 62.8852 118.345 62.8825C118.345 62.8825 118.345 62.8825 118.341 62.8655C118.054 62.2661 117.828 61.6679 117.639 61.0795C117.602 60.9914 117.585 60.9132 117.552 60.8244C117.384 60.2671 117.254 59.7196 117.167 59.1626C117.166 59.1592 117.166 59.1558 117.165 59.1524C117.146 59.0607 117.139 58.9484 117.12 58.8566C117.053 58.3063 117.013 57.7502 117.027 57.2002C117.027 57.1184 117.045 57.0508 117.042 56.9698C117.067 56.4033 117.137 55.8309 117.267 55.2564L108.21 52.0395L104.735 50.8107C103.891 53.0535 103.419 55.3128 103.288 57.5851C103.255 58.3342 103.253 59.0911 103.285 59.8442C103.281 59.909 103.291 59.9565 103.304 60.0177C103.34 60.7203 103.423 61.4129 103.519 62.0991C103.535 62.2556 103.588 62.4219 103.624 62.5918C103.732 63.1832 103.846 63.7875 104.004 64.3824C104.094 64.7185 104.21 65.0489 104.313 65.3822C104.452 65.8036 104.561 66.2492 104.731 66.6641C105.021 67.4263 105.348 68.195 105.704 68.9714C106.079 69.7476 106.48 70.5004 106.889 71.202C107.133 71.601 107.392 71.9828 107.65 72.3612C107.838 72.6444 108.015 72.944 108.22 73.2236C108.586 73.7247 108.993 74.2028 109.384 74.6703C109.492 74.7929 109.585 74.9328 109.69 75.0419C110.158 75.5711 110.663 76.0603 111.182 76.5289C111.222 76.57 111.262 76.6077 111.303 76.6487C113.091 78.2786 115.115 79.5636 117.365 80.5271C117.428 80.5529 117.493 80.5746 117.555 80.6004C118.116 80.8328 118.676 81.0652 119.265 81.2598L119.271 81.2406L119.274 81.2365L123.758 68.5503Z" fill="#5B6DF7"/>
<path d="M117.271 55.2558C117.344 54.917 117.435 54.5923 117.543 54.264C117.553 54.2298 117.56 54.1963 117.571 54.1621C117.683 53.8188 117.854 53.5231 117.995 53.1985C119.017 50.8576 120.743 49.0559 123.32 47.8265C125.499 46.7845 127.691 46.5421 129.88 46.979C130.35 47.0708 130.801 47.22 131.244 47.3993C131.721 47.5891 132.19 47.8266 132.639 48.1183C132.714 48.1664 132.805 48.211 132.883 48.2761C133.334 48.5813 133.791 48.9069 134.212 49.3004C134.451 49.523 134.715 49.6943 134.999 49.8114C135.14 49.8772 135.279 49.9116 135.432 49.9609C135.719 50.0276 136.028 50.0436 136.33 50.0114C136.629 49.9798 136.918 49.8864 137.194 49.7462C137.323 49.669 137.466 49.5923 137.589 49.4846L144.363 43.9643C144.585 43.7893 144.765 43.5841 144.91 43.3616C145.051 43.1399 145.156 42.8975 145.223 42.6453C145.222 42.6419 145.225 42.6411 145.225 42.6377C145.36 42.1401 145.341 41.5974 145.158 41.1036C145.038 40.774 144.847 40.4772 144.581 40.2106C143.87 39.5236 143.132 38.9241 142.363 38.3454C142.076 38.1329 141.779 37.9546 141.482 37.7586C140.992 37.4259 140.489 37.1138 139.962 36.8244C139.58 36.6144 139.185 36.425 138.789 36.2356C138.326 36.0287 137.862 35.8183 137.372 35.6348C136.936 35.4684 136.48 35.3097 136.029 35.1638C135.891 35.1117 135.766 35.0601 135.613 35.0251C134.909 34.8197 134.211 34.6448 133.473 34.514C132.819 34.3938 132.168 34.2906 131.507 34.2216C130.748 34.1415 129.985 34.1085 129.222 34.0931C128.024 34.0742 126.843 34.13 125.655 34.3044C125.013 34.3911 124.361 34.5155 123.715 34.6527C121.793 35.0792 119.867 35.7441 117.951 36.6522C117.174 37.0267 116.422 37.4282 115.69 37.843C114.238 38.6842 112.911 39.641 111.713 40.6699C108.856 43.1487 106.665 46.1924 105.147 49.7575C105.06 49.9533 104.957 50.1528 104.885 50.3458C104.867 50.4135 104.83 50.4712 104.812 50.5388C104.781 50.6271 104.753 50.7112 104.722 50.7995L108.217 52.0416L117.271 55.2558Z" fill="#F37CA7"/>
<mask id="mask0" mask-type="alpha" maskUnits="userSpaceOnUse" x="43" y="83" width="20" height="31">
<path fill-rule="evenodd" clip-rule="evenodd" d="M43.2715 83.8687H62.4326V113.468H43.2715V83.8687Z" fill="white"/>
</mask>
<g mask="url(#mask0)">
<path fill-rule="evenodd" clip-rule="evenodd" d="M60.0427 113.468H45.6614C44.3409 113.468 43.2715 112.39 43.2715 111.061V86.2751C43.2715 84.9461 44.3409 83.8687 45.6614 83.8687H60.0427C61.3626 83.8687 62.4326 84.9461 62.4326 86.2751V111.061C62.4326 112.39 61.3626 113.468 60.0427 113.468Z" fill="#FEB4CE"/>
</g>
<mask id="mask1" mask-type="alpha" maskUnits="userSpaceOnUse" x="58" y="83" width="30" height="31">
<path fill-rule="evenodd" clip-rule="evenodd" d="M58.4585 83.8687H87.8549V113.468H58.4585V83.8687Z" fill="white"/>
</mask>
<g mask="url(#mask1)">
<path fill-rule="evenodd" clip-rule="evenodd" d="M85.4655 113.468H60.849C59.5291 113.468 58.4585 112.39 58.4585 111.061V86.2751C58.4585 84.9461 59.5291 83.8687 60.849 83.8687H85.4655C86.7854 83.8687 87.8549 84.9461 87.8549 86.2751V111.061C87.8549 112.39 86.7854 113.468 85.4655 113.468Z" fill="#F37CA7"/>
</g>
<path fill-rule="evenodd" clip-rule="evenodd" d="M44.9375 110.16V87.1761C44.9375 86.2757 45.6624 85.5464 46.5561 85.5464H55.1739C56.0681 85.5464 56.7925 86.2757 56.7925 87.1761V110.16C56.7925 111.06 56.0681 111.79 55.1739 111.79H46.5561C45.6624 111.79 44.9375 111.06 44.9375 110.16Z" fill="white"/>
<path fill-rule="evenodd" clip-rule="evenodd" d="M61.7438 111.79C60.8496 111.79 60.1252 111.06 60.1252 110.16V87.1761C60.1252 86.2757 60.8496 85.5464 61.7438 85.5464H84.5695C85.4638 85.5464 86.1887 86.2757 86.1887 87.1761V110.16C86.1887 111.06 85.4643 111.79 84.5701 111.79H61.7438Z" fill="#FEB4CE"/>
<path fill-rule="evenodd" clip-rule="evenodd" d="M50.3741 95.9064L47.2381 101.444C47.0229 101.824 47.2951 102.296 47.7284 102.296H54.0016C54.4349 102.296 54.7071 101.824 54.4925 101.444L51.3559 95.9064C51.139 95.524 50.591 95.524 50.3741 95.9064Z" fill="#FEB4CE"/>
<path fill-rule="evenodd" clip-rule="evenodd" d="M73.6008 91.7054L75.0159 96.0914H79.5964C80.0486 96.0914 80.2367 96.6739 79.871 96.9415L76.1653 99.6522L77.581 104.038C77.7204 104.471 77.2283 104.831 76.8626 104.564L73.1569 101.853L69.4512 104.564C69.0855 104.831 68.5934 104.471 68.7339 104.038L70.149 99.6522L66.4433 96.9415C66.0776 96.6739 66.2652 96.0914 66.7179 96.0914H71.2978L72.713 91.7054C72.8535 91.2727 73.4614 91.2727 73.6008 91.7054Z" fill="white"/>
<path fill-rule="evenodd" clip-rule="evenodd" d="M76.9627 83.8687H91.3446C92.6645 83.8687 93.7339 82.7913 93.7339 81.4623V56.6759C93.7339 55.3469 92.6645 54.2695 91.3446 54.2695H76.9627C75.6428 54.2695 74.5728 55.3469 74.5728 56.6759V81.4623C74.5728 82.7913 75.6428 83.8687 76.9627 83.8687Z" fill="#F37CA7"/>
<path fill-rule="evenodd" clip-rule="evenodd" d="M51.5403 83.8687H76.1569C77.4768 83.8687 78.5468 82.7913 78.5468 81.4623V56.6759C78.5468 55.3469 77.4768 54.2695 76.1569 54.2695H51.5403C50.2204 54.2695 49.1504 55.3469 49.1504 56.6759V81.4623C49.1504 82.7913 50.2204 83.8687 51.5403 83.8687Z" fill="#FEB4CE"/>
<path fill-rule="evenodd" clip-rule="evenodd" d="M92.0681 80.5608V57.577C92.0681 56.6772 91.3438 55.9473 90.4496 55.9473H81.8323C80.9375 55.9473 80.2131 56.6772 80.2131 57.577V80.5608C80.2131 81.4612 80.9375 82.1905 81.8317 82.1905H90.4496C91.3438 82.1905 92.0681 81.4612 92.0681 80.5608Z" fill="#FEB4CE"/>
<path fill-rule="evenodd" clip-rule="evenodd" d="M76.8807 80.5608V57.577C76.8807 56.6772 76.1557 55.9473 75.2615 55.9473H52.4358C51.5416 55.9473 50.8167 56.6772 50.8167 57.577V80.5608C50.8167 81.4612 51.5416 82.1905 52.4352 82.1905H75.2615C76.1557 82.1905 76.8807 81.4612 76.8807 80.5608Z" fill="white"/>
<path fill-rule="evenodd" clip-rule="evenodd" d="M70.1108 73.7439V64.3935C70.1108 63.4931 69.3859 62.7632 68.4917 62.7632H59.2053C58.3117 62.7632 57.5862 63.4931 57.5862 64.3935V73.7445C57.5862 74.6443 58.3111 75.3736 59.2047 75.3736H68.4917C69.3859 75.3736 70.1108 74.6443 70.1108 73.7439Z" fill="#FEB4CE"/>
<path fill-rule="evenodd" clip-rule="evenodd" d="M86.6316 66.3078L89.7681 71.8458C89.9827 72.2253 89.7105 72.6965 89.2772 72.6965H83.004C82.5707 72.6965 82.2985 72.2253 82.5131 71.8458L85.6497 66.3078C85.8667 65.9254 86.4146 65.9254 86.6316 66.3078Z" fill="white"/>
<mask id="mask2" mask-type="alpha" maskUnits="userSpaceOnUse" x="19" y="83" width="20" height="31">
<path fill-rule="evenodd" clip-rule="evenodd" d="M19.543 83.8687H38.7047V113.468H19.543V83.8687Z" fill="white"/>
</mask>
<g mask="url(#mask2)">
<path fill-rule="evenodd" clip-rule="evenodd" d="M21.9329 113.468H36.3142C37.6347 113.468 38.7047 112.39 38.7047 111.061V86.2745C38.7047 84.9455 37.6347 83.8687 36.3142 83.8687H21.9329C20.613 83.8687 19.543 84.9455 19.543 86.2745V111.061C19.543 112.39 20.613 113.468 21.9329 113.468Z" fill="#F37CA7"/>
</g>
<mask id="mask3" mask-type="alpha" maskUnits="userSpaceOnUse" x="0" y="83" width="24" height="31">
<path fill-rule="evenodd" clip-rule="evenodd" d="M0 83.8687H23.5171V113.468H0V83.8687Z" fill="white"/>
</mask>
<g mask="url(#mask3)">
<path fill-rule="evenodd" clip-rule="evenodd" d="M2.38993 113.468H21.1272C22.4471 113.468 23.5171 112.39 23.5171 111.061V86.2745C23.5171 84.9455 22.4471 83.8687 21.1272 83.8687H2.38993C1.07003 83.8687 0 84.9455 0 86.2745V111.061C0 112.39 1.07003 113.468 2.38993 113.468Z" fill="#FEB4CE"/>
</g>
<path fill-rule="evenodd" clip-rule="evenodd" d="M37.0383 110.16V87.1761C37.0383 86.2757 36.3134 85.5464 35.4198 85.5464H26.8019C25.9083 85.5464 25.1833 86.2757 25.1833 87.1761V110.16C25.1833 111.06 25.9077 111.79 26.8019 111.79H35.4198C36.3134 111.79 37.0383 111.06 37.0383 110.16Z" fill="#FEB4CE"/>
<path fill-rule="evenodd" clip-rule="evenodd" d="M21.8507 110.16V87.1761C21.8507 86.2757 21.1257 85.5464 20.2321 85.5464H3.28507C2.39083 85.5464 1.6665 86.2757 1.6665 87.1761V110.16C1.6665 111.06 2.39083 111.79 3.28448 111.79H20.2321C21.1257 111.79 21.8507 111.06 21.8507 110.16Z" fill="white"/>
<path fill-rule="evenodd" clip-rule="evenodd" d="M13.5499 103.344V93.9925C13.5499 93.0927 12.825 92.3628 11.9313 92.3628H11.5856C10.692 92.3628 9.96704 93.0927 9.96704 93.9925V103.344C9.96704 104.244 10.692 104.973 11.5856 104.973H11.9313C12.825 104.973 13.5499 104.244 13.5499 103.344Z" fill="#FEB4CE"/>
<path fill-rule="evenodd" clip-rule="evenodd" d="M7.11515 100.471H16.4021C17.2957 100.471 18.0206 99.7419 18.0206 98.8415V98.494C18.0206 97.5942 17.2957 96.8643 16.4021 96.8643H7.11515C6.22091 96.8643 5.49658 97.5942 5.49658 98.4934V98.8415C5.49658 99.7419 6.22091 100.471 7.11515 100.471Z" fill="#FEB4CE"/>
<path fill-rule="evenodd" clip-rule="evenodd" d="M31.6015 95.9064L34.7381 101.444C34.9527 101.824 34.6805 102.296 34.2472 102.296H27.974C27.5407 102.296 27.2685 101.824 27.4831 101.444L30.6197 95.9064C30.8366 95.524 31.3846 95.524 31.6015 95.9064Z" fill="white"/>
<path fill-rule="evenodd" clip-rule="evenodd" d="M62.9824 54.2662H48.6011C47.2806 54.2662 46.2112 53.1888 46.2112 51.8598V27.0734C46.2112 25.7444 47.2806 24.667 48.6011 24.667H62.9824C64.3023 24.667 65.3723 25.7444 65.3723 27.0734V51.8598C65.3723 53.1888 64.3023 54.2662 62.9824 54.2662Z" fill="#FEB4CE"/>
<path fill-rule="evenodd" clip-rule="evenodd" d="M82.5257 54.2662H63.7885C62.4686 54.2662 61.3979 53.1888 61.3979 51.8598V27.0734C61.3979 25.7444 62.4686 24.667 63.7885 24.667H82.5257C83.8456 24.667 84.9151 25.7444 84.9151 27.0734V51.8598C84.9151 53.1888 83.8456 54.2662 82.5257 54.2662Z" fill="#F37CA7"/>
<path fill-rule="evenodd" clip-rule="evenodd" d="M47.877 50.9587V27.9749C47.877 27.0751 48.6019 26.3452 49.4955 26.3452H58.1134C59.0076 26.3452 59.7319 27.0751 59.7319 27.9749V50.9587C59.7319 51.8591 59.0076 52.5885 58.1134 52.5885H49.4955C48.6019 52.5885 47.877 51.8591 47.877 50.9587Z" fill="white"/>
<path fill-rule="evenodd" clip-rule="evenodd" d="M64.6835 52.588C63.7893 52.588 63.0649 51.8586 63.0649 50.9582V27.9745C63.0649 27.0746 63.7893 26.3447 64.6835 26.3447H81.6299C82.5242 26.3447 83.2491 27.0746 83.2491 27.9745V50.9588C83.2491 51.8586 82.5248 52.588 81.6305 52.588H64.6835Z" fill="#FEB4CE"/>
<path fill-rule="evenodd" clip-rule="evenodd" d="M53.3138 36.7057L50.1778 42.2437C49.9626 42.6232 50.2348 43.0944 50.6681 43.0944H56.9413C57.3746 43.0944 57.6468 42.6232 57.4322 42.2437L54.2956 36.7057C54.0787 36.3227 53.5307 36.3227 53.3138 36.7057Z" fill="#FEB4CE"/>
<path fill-rule="evenodd" clip-rule="evenodd" d="M77.2356 39.7563C77.2356 42.0834 75.3618 43.9707 73.0507 43.9707C70.739 43.9707 68.8652 42.0834 68.8652 39.7563C68.8652 37.4286 70.739 35.542 73.0507 35.542C75.3618 35.542 77.2356 37.4286 77.2356 39.7563Z" fill="white"/>
<path fill-rule="evenodd" clip-rule="evenodd" d="M76.1566 54.2695H51.54L78.5465 65.0596V56.6759C78.5465 55.3469 77.4765 54.2695 76.1566 54.2695Z" fill="#F37CA7"/>
<path fill-rule="evenodd" clip-rule="evenodd" d="M87.855 86.2745C87.855 84.9461 86.7856 83.8687 85.4657 83.8687H76.2029L87.855 91.9546V86.2745Z" fill="#F37CA7"/>
<path fill-rule="evenodd" clip-rule="evenodd" d="M172.995 112.645H158.613C157.293 112.645 156.223 111.567 156.223 110.238V85.4518C156.223 84.1228 157.293 83.0454 158.613 83.0454H172.995C174.315 83.0454 175.385 84.1228 175.385 85.4518V110.238C175.385 111.567 174.315 112.645 172.995 112.645Z" fill="#FEB4CE"/>
<path fill-rule="evenodd" clip-rule="evenodd" d="M192.538 112.645H173.801C172.481 112.645 171.41 111.567 171.41 110.238V85.4518C171.41 84.1228 172.481 83.0454 173.801 83.0454H192.538C193.858 83.0454 194.928 84.1228 194.928 85.4518V110.238C194.928 111.567 193.858 112.645 192.538 112.645Z" fill="#F37CA7"/>
<path fill-rule="evenodd" clip-rule="evenodd" d="M157.889 109.337V86.3534C157.889 85.4535 158.614 84.7236 159.508 84.7236H168.126C169.02 84.7236 169.744 85.4535 169.744 86.3534V109.337C169.744 110.238 169.02 110.967 168.126 110.967H159.508C158.614 110.967 157.889 110.238 157.889 109.337Z" fill="white"/>
<path fill-rule="evenodd" clip-rule="evenodd" d="M174.696 110.967C173.802 110.967 173.077 110.238 173.077 109.337V86.3534C173.077 85.4535 173.802 84.7236 174.696 84.7236H191.642C192.537 84.7236 193.262 85.4535 193.262 86.3534V109.338C193.262 110.238 192.537 110.967 191.643 110.967H174.696Z" fill="#FEB4CE"/>
<path fill-rule="evenodd" clip-rule="evenodd" d="M163.326 95.0841L160.19 100.622C159.975 101.002 160.247 101.473 160.68 101.473H166.953C167.387 101.473 167.659 101.002 167.444 100.622L164.308 95.0841C164.091 94.7011 163.543 94.7011 163.326 95.0841Z" fill="#FEB4CE"/>
<path fill-rule="evenodd" clip-rule="evenodd" d="M187.248 98.1352C187.248 100.462 185.374 102.35 183.063 102.35C180.751 102.35 178.877 100.462 178.877 98.1352C178.877 95.8076 180.751 93.9209 183.063 93.9209C185.374 93.9209 187.248 95.8076 187.248 98.1352Z" fill="white"/>
</svg>
