<svg width="141" height="100" viewBox="0 0 141 100" fill="none" xmlns="http://www.w3.org/2000/svg">
<path d="M52.2738 13.8988C70.6669 6.28012 91.3331 6.28012 109.726 13.8988C113.971 15.6569 117.343 19.0292 119.101 23.2738C126.72 41.6669 126.72 62.3331 119.101 80.7262C117.343 84.9708 113.971 88.3431 109.726 90.1012C91.3331 97.7199 70.6669 97.7199 52.2738 90.1012C48.0292 88.3431 44.6569 84.9708 42.8988 80.7262C35.2801 62.3331 35.2801 41.6669 42.8988 23.2738C44.6569 19.0292 48.0292 15.6569 52.2738 13.8988Z" fill="white"/>
<path d="M24.6201 88.1592C19.5167 77.8164 18.6434 69.0754 17.7222 61.0002" stroke="#5B6DF7" stroke-width="16" stroke-linecap="round" stroke-linejoin="round"/>
<path d="M93.0407 3.8532C105.18 -1.17512 118.82 -1.17512 130.959 3.8532C133.761 5.01358 135.986 7.23929 137.147 10.0407C142.175 22.1801 142.175 35.8199 137.147 47.9593C135.986 50.7607 133.761 52.9864 130.959 54.1468C118.82 59.1751 105.18 59.1751 93.0407 54.1468C90.2393 52.9864 88.0136 50.7607 86.8532 47.9593C81.8249 35.8199 81.8249 22.1801 86.8532 10.0407C88.0136 7.23929 90.2393 5.01358 93.0407 3.8532Z" fill="#F37CA7"/>
<path fill-rule="evenodd" clip-rule="evenodd" d="M90.5499 78.1907C90.5499 76.6125 87.139 75.3335 82.9308 75.3335C78.7232 75.3335 75.3118 76.6125 75.3118 78.1907C75.3118 79.7689 78.7232 81.0479 82.9308 81.0479C87.139 81.0479 90.5499 79.7689 90.5499 78.1907Z" fill="#5B6DF7"/>
<path d="M82.931 81.9999C78.6711 81.9999 74.3594 80.6915 74.3594 78.1907C74.3594 75.6898 78.6711 74.3809 82.931 74.3809C87.1909 74.3809 91.5026 75.6898 91.5026 78.1907C91.5026 80.6915 87.1909 81.9999 82.931 81.9999ZM82.931 76.286C78.6008 76.286 76.2645 77.6381 76.2645 78.1907C76.2645 78.7432 78.6008 80.0953 82.931 80.0953C87.2612 80.0953 89.5975 78.7432 89.5975 78.1907C89.5975 77.6381 87.2612 76.286 82.931 76.286Z" fill="#5B6DF7"/>
<path fill-rule="evenodd" clip-rule="evenodd" d="M103.883 43.9046C103.883 32.333 94.5024 22.9526 82.9308 22.9526C71.3592 22.9526 61.9783 32.333 61.9783 43.9046C61.9783 55.4767 79.1215 78.1905 82.9308 78.1905C86.7406 78.1905 103.883 55.4767 103.883 43.9046Z" fill="#01259B"/>
<path d="M82.9309 79.1431C79.8802 79.1431 73.2917 70.4913 70.2345 65.9164C67.4661 61.7742 61.0264 51.3361 61.0264 43.9045C61.0264 31.8261 70.8525 22 82.9309 22C95.0093 22 104.835 31.8261 104.835 43.9045C104.835 51.3361 98.3957 61.7742 95.6278 65.9164C92.5701 70.4913 85.9816 79.1431 82.9309 79.1431ZM82.9309 23.9046C71.9026 23.9046 62.931 32.8773 62.931 43.9045C62.931 55.5508 80.2688 77.2379 82.9309 77.2379C85.593 77.2379 102.931 55.5508 102.931 43.9045C102.931 32.8773 93.9592 23.9046 82.9309 23.9046Z" fill="#01259B"/>
<path fill-rule="evenodd" clip-rule="evenodd" d="M100.073 43.9044C100.073 53.3725 92.3983 61.0477 82.9308 61.0477C73.4633 61.0477 65.7881 53.3725 65.7881 43.9044C65.7881 34.4369 73.4633 26.7617 82.9308 26.7617C92.3983 26.7617 100.073 34.4369 100.073 43.9044Z" fill="#5B6DF7"/>
<path d="M82.9307 61.9996C72.9531 61.9996 64.8354 53.8819 64.8354 43.9043C64.8354 33.9267 72.9531 25.8096 82.9307 25.8096C92.9084 25.8096 101.026 33.9267 101.026 43.9043C101.026 53.8819 92.9084 61.9996 82.9307 61.9996ZM82.9307 27.7142C74.0033 27.7142 66.7401 34.9768 66.7401 43.9043C66.7401 52.8323 74.0033 60.095 82.9307 60.095C91.8582 60.095 99.1214 52.8323 99.1214 43.9043C99.1214 34.9768 91.8582 27.7142 82.9307 27.7142Z" fill="#5B6DF7"/>
<path fill-rule="evenodd" clip-rule="evenodd" d="M66.4683 39.1256C67.9446 39.4378 69.3282 39.9179 69.6939 40.6493C70.562 42.3855 72.2982 42.3855 74.0339 40.6493C75.7701 38.9136 78.3739 37.1773 75.7701 34.5735C74.4704 33.2738 74.0432 31.13 73.9413 29.3076C70.3647 31.5152 67.6639 34.9997 66.4683 39.1256Z" fill="white"/>
<path d="M71.5329 42.9041C71.3808 42.9041 71.2304 42.8922 71.0822 42.8682C70.1383 42.7156 69.3427 42.0785 68.8419 41.0758C68.8392 41.0704 68.5503 40.5412 66.2708 40.0584C66.0119 40.0039 65.7874 39.8437 65.6512 39.617C65.5155 39.3892 65.4795 39.1156 65.5531 38.8617C66.8037 34.5461 69.6054 30.866 73.4408 28.4988C73.7263 28.3222 74.0838 28.3102 74.3819 28.4644C74.6794 28.6197 74.8735 28.92 74.892 29.2557C74.9754 30.7505 75.3127 32.7696 76.4429 33.9004C77.3737 34.8317 77.838 35.799 77.8233 36.7772C77.7988 38.4012 76.5034 39.6202 75.3606 40.6965C75.1372 40.9069 74.9154 41.115 74.7072 41.3232C73.6762 42.3543 72.565 42.9041 71.5329 42.9041ZM67.6893 38.4442C69.2446 38.8824 70.1623 39.4573 70.5454 40.2235C70.7721 40.6764 71.0549 40.9341 71.3868 40.9881C71.9078 41.0644 72.6315 40.7052 73.3601 39.9761C73.5819 39.7537 73.8173 39.5325 74.0544 39.3096C74.965 38.4518 75.9061 37.5657 75.9187 36.7478C75.9252 36.3042 75.6484 35.7995 75.0963 35.247C74.1176 34.2682 73.4707 32.8415 73.1656 30.9919C70.6517 32.8927 68.7503 35.4769 67.6893 38.4442Z" fill="#5B6DF7"/>
<path fill-rule="evenodd" clip-rule="evenodd" d="M78.3738 57.1413C78.3738 57.1413 80.1101 51.9337 78.3738 51.0656C76.6381 50.1975 74.9019 51.0656 74.0338 48.4613C73.1657 45.8575 74.0338 44.9893 76.6381 44.1212C79.242 43.2531 82.7139 44.1212 83.582 47.5931C84.4501 51.0651 82.7139 52.8013 81.8458 56.2732C81.2142 58.7996 78.3738 57.1413 78.3738 57.1413Z" fill="white"/>
<path d="M80.1983 58.6266C79.0714 58.6266 78.0398 58.049 77.8932 57.9634C77.5046 57.7367 77.3281 57.2681 77.4703 56.8408C78.249 54.4981 78.3853 52.1357 77.9477 51.9171C77.5101 51.6975 77.0441 51.6158 76.552 51.5291C75.3689 51.321 73.897 51.0616 73.1303 48.7635C72.0131 45.4087 73.5286 44.1553 76.3368 43.2185C78.1362 42.6175 80.1417 42.769 81.6997 43.6267C83.1193 44.4055 84.0893 45.697 84.5057 47.3629C85.1694 50.0169 84.4653 51.8076 83.7198 53.7041C83.382 54.5635 83.0327 55.4517 82.77 56.5046C82.473 57.6899 81.7852 58.2027 81.2605 58.4239C80.9133 58.57 80.5515 58.6266 80.1983 58.6266ZM78.3738 57.1416H78.3831H78.3738ZM79.534 56.607C79.8964 56.7182 80.2795 56.7722 80.5226 56.6681C80.5902 56.6392 80.7945 56.5531 80.9215 56.043C81.2152 54.8703 81.6038 53.8801 81.9471 53.0076C82.6594 51.1956 83.1733 49.8877 82.6577 47.824C82.3694 46.6708 81.7389 45.8207 80.7831 45.2965C79.6812 44.6916 78.2452 44.5902 76.939 45.0245C74.6071 45.8033 74.3074 46.2719 74.9373 48.1608C75.3444 49.3831 75.8262 49.4676 76.8817 49.6539C77.4588 49.7553 78.1133 49.8703 78.8 50.2136C80.7498 51.1891 80.0703 54.7073 79.534 56.607Z" fill="#5B6DF7"/>
<path fill-rule="evenodd" clip-rule="evenodd" d="M91.801 29.2334C89.2103 31.7664 86.395 34.9331 87.9215 35.4421C90.5258 36.3102 92.2615 37.1778 92.2615 37.1778C92.2615 37.1778 91.3934 39.7821 88.7896 39.7821C86.1858 39.7821 82.7139 39.7821 82.7139 40.6502C82.7139 41.5184 87.9215 44.9903 87.9215 45.8578C87.9215 46.726 89.0441 50.4524 89.6577 51.066C90.5258 51.9341 93.1296 52.8017 93.9977 49.3298C94.8659 45.8578 93.9977 43.254 95.7334 42.3859C96.704 41.9009 97.9454 39.5391 98.8517 37.55C97.462 34.0715 94.9694 31.1527 91.801 29.2334Z" fill="white"/>
<path d="M91.5536 52.7947C90.5192 52.7947 89.5465 52.3015 88.9841 51.7391C88.1803 50.9364 87.0931 47.2868 86.9792 46.0443C86.692 45.6388 85.5073 44.6519 84.7089 43.9865C82.5253 42.1664 81.7612 41.4579 81.7612 40.6497C81.7612 38.9141 84.3007 38.829 88.7896 38.829C89.8898 38.829 90.5754 38.1784 90.9596 37.6269C90.219 37.3021 89.0511 36.822 87.6206 36.3451C87.0795 36.1647 86.7002 35.7609 86.5797 35.2383C86.3727 34.338 86.752 32.8389 91.1356 28.5522C91.4462 28.2492 91.9231 28.1942 92.2947 28.4182C95.6424 30.4471 98.2854 33.5642 99.7367 37.1963C99.8331 37.4383 99.8266 37.7075 99.7192 37.9451C97.8598 42.0236 96.7972 42.9189 96.1596 43.2377C95.626 43.5048 95.5345 44.1631 95.425 45.841C95.3579 46.871 95.2746 48.1516 94.922 49.5603C94.3846 51.7086 93.2419 52.4453 92.377 52.6846C92.1024 52.7609 91.8255 52.7947 91.5536 52.7947ZM84.0866 40.9271C84.5836 41.4023 85.3552 42.0459 85.9285 42.5238C88.1105 44.3424 88.8746 45.0497 88.8746 45.8579C88.8746 46.5418 89.9073 49.8851 90.3421 50.4034C90.6097 50.671 91.292 51.0105 91.8686 50.8486C92.5503 50.6601 92.9002 49.793 93.0735 49.0993C93.3846 47.8557 93.4588 46.72 93.5241 45.7178C93.6386 43.9669 93.7465 42.3146 95.3078 41.5342C95.395 41.4906 96.1852 41.016 97.8124 37.5293C96.5824 34.6661 94.5187 32.1827 91.9307 30.4454C89.3727 33.0094 88.6909 34.1876 88.5089 34.635C90.9863 35.4808 92.6168 36.2906 92.6876 36.326C93.1111 36.5386 93.3149 37.029 93.165 37.4797C93.1209 37.6127 92.043 40.7348 88.7896 40.7348C87.5569 40.7348 85.256 40.7348 84.0866 40.9271Z" fill="#5B6DF7"/>
<path d="M81.9786 74.3806C81.6952 74.3806 81.414 74.2542 81.2266 74.0133L74.5596 65.4423C74.237 65.0265 74.3116 64.4281 74.7269 64.1055C75.1411 63.7812 75.7394 63.8575 76.0637 64.2722L82.7301 72.8433C83.0527 73.2591 82.9781 73.8575 82.5628 74.1801C82.3895 74.3158 82.1835 74.3806 81.9786 74.3806Z" fill="white"/>
<path d="M115.576 22.5167C110.73 21.8716 109.128 20.2703 108.483 15.4243C108.469 15.3181 108.421 15.2187 108.345 15.1428C108.154 14.9524 107.846 14.9524 107.655 15.1428C107.579 15.2187 107.531 15.3181 107.517 15.4243C106.872 20.2703 105.27 21.8716 100.424 22.5167C100.318 22.5312 100.219 22.5795 100.143 22.6554C99.9524 22.8458 99.9524 23.1542 100.143 23.3446C100.219 23.4205 100.318 23.4688 100.424 23.4833C105.27 24.1284 106.872 25.7297 107.517 30.5757C107.531 30.6819 107.579 30.7813 107.655 30.8572C107.846 31.0476 108.154 31.0476 108.345 30.8572C108.421 30.7813 108.469 30.6819 108.483 30.5757C109.128 25.7297 110.73 24.1284 115.576 23.4833C115.682 23.4688 115.781 23.4205 115.857 23.3446C116.048 23.1542 116.048 22.8458 115.857 22.6554C115.781 22.5795 115.682 22.5312 115.576 22.5167Z" fill="white"/>
</svg>
