<svg width="157" height="40" viewBox="0 0 157 40" fill="none" xmlns="http://www.w3.org/2000/svg">
<path d="M121.665 13.1619H116.188C115.404 13.1619 114.765 13.8013 114.765 14.5854V37.8527C114.765 38.6369 115.404 39.2763 116.188 39.2763H121.665C122.45 39.2763 123.089 38.6369 123.089 37.8527V14.5874C123.089 13.8013 122.45 13.1619 121.665 13.1619Z" fill="#01259B"/>
<path d="M51.3771 15.1262C49.2418 13.206 46.5435 12.2771 43.2721 12.2771C39.7294 12.2771 36.7174 13.582 34.2262 16.1758C31.735 18.7776 30.4844 22.1092 30.4844 26.1064C30.4844 30.1599 31.735 33.4915 34.2262 36.0933C36.7174 38.6951 39.7394 39.992 43.2721 39.992C46.5455 39.992 49.2438 39.0631 51.3771 37.1429V15.1443V15.1262ZM49.4609 31.0546C48.2103 32.3052 46.7043 32.9265 44.9872 32.9265C43.1716 32.9265 41.6556 32.3052 40.4592 31.0546C39.2629 29.804 38.6879 28.1975 38.6879 26.1627C38.6879 24.1902 39.2629 22.5757 40.4592 21.3251C41.6556 20.0744 43.1616 19.4531 44.9872 19.4531C46.7043 19.4531 48.2103 20.0744 49.4609 21.3793C50.7116 22.6843 51.3329 24.2908 51.3329 26.217C51.3329 28.1874 50.7015 29.804 49.4609 31.0546Z" fill="#01259B"/>
<path d="M58.2795 13.1619H52.8025C52.4124 13.1619 52.0586 13.3207 51.8012 13.5761C51.5619 13.8133 51.4111 14.137 51.387 14.4969C51.385 14.5271 51.377 14.5573 51.377 14.5874V15.1283V15.1444V37.141V37.143V37.7904V37.8547C51.377 38.6389 52.0163 39.2783 52.8005 39.2783H58.2775C59.0617 39.2783 59.7011 38.6389 59.7011 37.8547V37.7904V14.5874C59.7031 13.8013 59.0637 13.1619 58.2795 13.1619Z" fill="#5B6DF7"/>
<path d="M99.2286 12.3233V12.269C95.33 12.269 92.2537 13.7288 90.0178 16.6865C88.2022 13.7207 85.335 12.269 81.4926 12.269C78.2695 12.269 75.714 13.3106 73.7979 15.4459V26.3637C73.7979 24.2284 74.2181 22.6219 75.1028 21.4718C75.9875 20.3318 77.1838 19.7547 78.7441 19.7547C80.0409 19.7547 81.0804 20.2212 81.9108 21.1059C82.7412 21.9906 83.1615 23.1869 83.1615 24.6386V37.728C83.1615 38.5403 83.819 39.2058 84.6393 39.2058H90.0057C90.818 39.2058 91.4836 38.5483 91.4836 37.728V26.408C91.4836 24.2727 91.95 22.6661 92.889 21.5161C93.83 20.376 95.0706 19.799 96.6308 19.799C97.8815 19.799 98.923 20.2654 99.7534 21.1501C100.584 22.0348 101.004 23.2311 101.004 24.6909V37.7802C101.004 38.5926 101.661 39.2581 102.482 39.2581H107.794C108.606 39.2581 109.272 38.6006 109.272 37.7802V22.9295C109.272 19.807 108.331 17.2615 106.415 15.281C104.486 13.3186 102.086 12.3233 99.2286 12.3233Z" fill="#01259B"/>
<path d="M72.3722 13.1619H66.8952C66.1111 13.1619 65.4717 13.8013 65.4717 14.5854V37.6899V37.8447C65.4717 38.6288 66.1111 39.2682 66.8952 39.2682H72.3722C73.1564 39.2682 73.7958 38.6288 73.7958 37.8447V37.6899V26.3699V15.454V14.5874C73.7978 13.8013 73.1584 13.1619 72.3722 13.1619Z" fill="#F37CA7"/>
<path d="M8.71896 28.7021C8.71896 28.7041 8.72097 28.7061 8.72097 28.7081C8.55609 28.316 8.41937 27.9059 8.31079 27.4675C8.31079 27.4695 8.31079 27.4695 8.3128 27.4716C8.42138 27.9139 8.55609 28.312 8.71896 28.7021Z" fill="#01259B"/>
<path d="M25.9644 19.2419C25.9644 19.244 25.9624 19.244 25.9624 19.246C25.894 19.3807 25.8055 19.5053 25.699 19.6139C25.8076 19.5033 25.896 19.3787 25.9644 19.2419Z" fill="#01259B"/>
<path d="M6.62793 37.9712L6.62994 37.9733L6.63195 37.9712L6.62994 37.9692L6.62793 37.9712Z" fill="#01259B"/>
<path d="M27.5809 26.6713C27.4803 26.617 27.3798 26.5708 27.2712 26.5426C27.1425 26.5064 27.0058 26.4783 26.8691 26.4783L22.0395 26.4883C21.6836 26.4883 21.3559 26.625 21.0985 26.8442C20.9256 26.991 20.807 27.2001 20.7145 27.4092C20.6682 27.5097 20.624 27.6103 20.6059 27.7188C20.5335 28.1109 20.433 28.4769 20.3043 28.8147C20.2862 28.8508 20.2762 28.8971 20.2581 28.9333C20.1294 29.261 19.9846 29.5727 19.8117 29.8642C19.4377 30.4936 18.9451 31.0244 18.352 31.4426C18.3158 31.4707 18.2796 31.4888 18.2514 31.5069C18.0041 31.6718 17.7307 31.8166 17.4472 31.9533C17.3748 31.9895 17.3004 32.0257 17.22 32.0538C16.8822 32.1905 16.5263 32.3192 16.1422 32.4097C15.6858 32.5183 15.2395 32.5826 14.8092 32.6108C14.59 32.6208 14.3809 32.6289 14.1617 32.6108C13.1021 32.5645 12.1089 32.2549 11.2041 31.6698C10.9306 31.4868 10.6833 31.2777 10.438 31.0666C10.5285 31.149 10.6109 31.2395 10.7034 31.3139L6.63184 37.9712C6.71226 38.0194 6.78465 38.0737 6.86708 38.12C10.2088 39.9919 13.7958 40.4664 17.6925 39.5254C18.0946 39.4249 18.4967 39.3163 18.8787 39.1977C21.571 38.3391 23.7888 36.8613 25.534 34.7521C26.465 33.6201 27.1687 32.4157 27.6432 31.137C27.6613 31.0907 27.6794 31.0465 27.6975 31.0002C27.8342 30.572 27.9709 30.1336 28.0715 29.6772C28.0896 29.6048 28.0996 29.5405 28.1177 29.4681C28.2182 29.0117 28.2906 28.5372 28.3369 28.0627C28.3932 27.4655 28.0735 26.9367 27.5809 26.6713Z" fill="#01259B"/>
<path d="M10.6934 31.328C10.5929 31.2556 10.5205 31.1631 10.428 31.0807C10.2993 30.9721 10.1726 30.8535 10.054 30.7328C9.88912 30.5599 9.7343 30.377 9.59758 30.1859C9.49704 30.0573 9.39651 29.9306 9.30603 29.7939C9.15925 29.5667 9.03258 29.3274 8.91395 29.0821C8.84961 28.9534 8.77723 28.8348 8.72294 28.7081C8.72294 28.7061 8.72093 28.7041 8.72093 28.7021C8.55807 28.312 8.42335 27.9139 8.31277 27.4716C8.31277 27.4695 8.31277 27.4695 8.31076 27.4675C8.31076 27.4675 8.31076 27.4675 8.31076 27.4575C8.22028 27.0835 8.16398 26.7176 8.12779 26.3617C8.11773 26.3074 8.11773 26.2611 8.10969 26.2069C8.08154 25.8711 8.0735 25.5453 8.09159 25.2196C8.09159 25.2176 8.09159 25.2156 8.09159 25.2136C8.09159 25.1593 8.10165 25.095 8.10165 25.0407C8.1298 24.721 8.17403 24.4013 8.24843 24.0916C8.25848 24.0454 8.27657 24.0092 8.28462 23.963C8.36705 23.6453 8.47563 23.3296 8.61839 23.02L3.87726 20.1085L2.05761 18.9946C1.30965 20.1628 0.770791 21.3853 0.422948 22.656C0.314372 23.0763 0.221882 23.5045 0.149499 23.9348C0.139445 23.971 0.139445 23.9992 0.139445 24.0353C0.0751042 24.4375 0.0389125 24.8396 0.0107633 25.2397C0.00071002 25.3302 0.0107633 25.4307 0.0107633 25.5313C0.00071002 25.8791 -0.00733261 26.235 0.0107633 26.5909C0.0208166 26.792 0.046955 26.993 0.0650509 27.1941C0.0932001 27.4494 0.101243 27.7148 0.147488 27.9702C0.219872 28.4367 0.312362 28.9112 0.420937 29.3937C0.539566 29.8783 0.676291 30.3528 0.823069 30.7992C0.913548 31.0545 1.01408 31.3019 1.11461 31.5472C1.187 31.7301 1.25134 31.9211 1.33378 32.1041C1.48055 32.4318 1.65347 32.7515 1.81834 33.0632C1.86459 33.1456 1.90078 33.2361 1.94703 33.3105C2.14809 33.6664 2.3753 34.0042 2.61255 34.3319C2.63065 34.3601 2.64875 34.3862 2.66684 34.4144C3.48317 35.5524 4.47442 36.5235 5.63256 37.3399C5.66473 37.362 5.69891 37.3821 5.73108 37.4042C6.02062 37.6033 6.31015 37.8023 6.61979 37.9833L6.62582 37.9732L6.62784 37.9712L10.6934 31.328Z" fill="#5B6DF7"/>
<path d="M8.62033 23.0201C8.70276 22.8371 8.79324 22.6642 8.89378 22.4913C8.90383 22.4732 8.91187 22.4551 8.92193 22.437C9.02648 22.256 9.15918 22.1093 9.27781 21.9424C10.1384 20.74 11.3327 19.9277 12.9392 19.5416C14.2984 19.2139 15.5692 19.3406 16.7554 19.8513C17.0108 19.9599 17.2481 20.0986 17.4773 20.2534C17.7246 20.4183 17.9618 20.6093 18.181 20.8285C18.2172 20.8647 18.2634 20.9009 18.2996 20.9471C18.5188 21.1743 18.7379 21.4136 18.929 21.687C19.0375 21.8418 19.1662 21.9705 19.313 22.0711C19.3854 22.1253 19.4598 22.1615 19.5402 22.2078C19.695 22.2802 19.8679 22.3264 20.0429 22.3445C20.2158 22.3626 20.3907 22.3445 20.5636 22.2983C20.6461 22.2701 20.7365 22.244 20.819 22.1977L25.3188 19.8875C25.4656 19.8151 25.5923 19.7206 25.7008 19.612C25.8074 19.5034 25.8959 19.3788 25.9642 19.2441C25.9642 19.2421 25.9663 19.2421 25.9663 19.2401C26.103 18.9746 26.1573 18.665 26.113 18.3634C26.0849 18.1623 26.0125 17.9713 25.8939 17.7884C25.5742 17.3138 25.2283 16.8856 24.8624 16.4653C24.7257 16.3105 24.5789 16.1738 24.4341 16.027C24.1969 15.7797 23.9496 15.5425 23.6862 15.3153C23.4952 15.1504 23.2941 14.9956 23.093 14.8407C22.8558 14.6678 22.6185 14.4929 22.3632 14.33C22.136 14.1833 21.8967 14.0385 21.6594 13.9018C21.587 13.8555 21.5227 13.8113 21.4403 13.7731C21.0663 13.572 20.6923 13.389 20.2902 13.2262C19.9343 13.0794 19.5784 12.9427 19.2125 12.824C18.7922 12.6873 18.364 12.5767 17.9337 12.4762C17.2581 12.3214 16.5825 12.2108 15.8888 12.1666C15.5149 12.1384 15.1308 12.1304 14.7488 12.1304C13.6088 12.1404 12.4386 12.2852 11.2442 12.5687C10.7597 12.6873 10.2852 12.824 9.82069 12.9708C8.8978 13.2724 8.0312 13.6544 7.22895 14.0928C5.3128 15.1524 3.70628 16.6121 2.41745 18.4479C2.34507 18.5484 2.26263 18.6489 2.19829 18.7495C2.1802 18.7856 2.15205 18.8138 2.13395 18.85C2.1058 18.8962 2.07966 18.9405 2.05151 18.9867L3.88121 20.1107L8.62033 23.0201Z" fill="#F37CA7"/>
<path d="M118.927 0C117.521 0 116.379 0.420227 115.495 1.35116C114.61 2.28209 114.144 3.3779 114.144 4.68282C114.144 6.03398 114.61 7.18407 115.495 8.06072C116.379 8.94541 117.521 9.41188 118.927 9.41188C120.332 9.41188 121.474 8.94541 122.413 8.06072C123.354 7.17603 123.819 6.08827 123.819 4.78335C123.819 3.47844 123.352 2.39268 122.413 1.45169C121.482 0.52076 120.332 0 118.927 0Z" fill="#F37CA7"/>
<path d="M139.136 28.3523H154.672C155.495 28.3523 156.15 27.6767 156.132 26.8644L156.114 26.1345V26.1164C156.104 25.6057 156.068 25.1031 156.024 24.6185C155.995 24.3169 155.951 24.0334 155.905 23.7519C155.877 23.5689 155.859 23.386 155.833 23.205C155.768 22.831 155.678 22.4651 155.585 22.1012C155.567 22.0288 155.549 21.9463 155.531 21.8639C155.422 21.4537 155.284 21.0516 155.147 20.6676C155.137 20.6495 155.137 20.6213 155.129 20.6032C154.518 18.9686 153.605 17.5269 152.39 16.2683C152.39 16.2683 152.39 16.2683 152.38 16.2582C152.326 16.2039 152.272 16.1396 152.215 16.0752C149.668 13.5277 146.491 12.2771 142.695 12.2771C138.796 12.2771 135.521 13.582 132.865 16.1758C132.837 16.2039 132.811 16.23 132.782 16.2662C132.754 16.2944 132.736 16.3205 132.71 16.3487C131.441 17.6355 130.474 19.0972 129.835 20.7219C129.825 20.75 129.817 20.7761 129.807 20.8043C129.66 21.1883 129.523 21.5704 129.415 21.9725C129.386 22.0549 129.378 22.1454 129.35 22.2379C129.26 22.5857 129.177 22.9316 129.103 23.2875C129.067 23.4785 129.049 23.6715 129.031 23.8625C128.994 24.1279 128.948 24.3913 128.922 24.6668C128.876 25.1413 128.858 25.6258 128.858 26.1185C128.858 26.6211 128.876 27.1037 128.922 27.5782C128.95 27.8516 128.994 28.1251 129.031 28.3905C129.059 28.5815 129.077 28.7826 129.103 28.9655C129.167 29.3315 129.258 29.6773 129.35 30.0252C129.368 30.1076 129.386 30.1981 129.415 30.2906C129.523 30.6927 129.662 31.0747 129.807 31.4507C129.817 31.4789 129.825 31.5151 129.835 31.5412C130.474 33.1779 131.439 34.6336 132.708 35.9244L132.734 35.8983L137.96 30.6726C137.95 30.6545 137.932 30.6364 137.924 30.6183C137.896 30.5821 137.877 30.554 137.851 30.5097C137.715 30.2624 137.66 30.0071 137.668 29.7618C137.686 29.0279 138.298 28.3523 139.136 28.3523ZM137.503 22.5837C137.493 22.5294 137.503 22.4651 137.514 22.4008C137.524 22.3364 137.542 22.2821 137.578 22.2178C137.686 21.9986 137.815 21.7895 137.952 21.5884C138.117 21.3512 138.308 21.132 138.499 20.931C138.545 20.8847 138.581 20.8405 138.627 20.8023C138.837 20.6012 139.056 20.4102 139.303 20.2373C140.345 19.5074 141.485 19.1415 142.681 19.1415C143.932 19.1415 145.017 19.5074 145.958 20.183C146.177 20.3378 146.379 20.5208 146.57 20.7219C146.598 20.75 146.624 20.7862 146.652 20.8123C146.835 21.0134 147 21.2225 147.155 21.4598C147.309 21.7071 147.456 21.9524 147.583 22.2359C147.637 22.3545 147.655 22.4731 147.637 22.5918C147.601 22.9396 147.289 23.2392 146.897 23.2392H145.363H139.603H138.233C137.849 23.2493 137.54 22.9396 137.503 22.5837Z" fill="#01259B"/>
<path d="M132.702 35.9284C132.756 35.9827 132.802 36.047 132.857 36.1013C133.522 36.7487 134.226 37.3238 134.966 37.8084C137.184 39.2681 139.749 40 142.643 40C143.409 40 144.149 39.9537 144.87 39.8713C145.838 39.7527 146.75 39.5617 147.627 39.2862C148.367 39.059 149.079 38.7835 149.744 38.4457C150.036 38.299 150.319 38.1361 150.603 37.9712C150.987 37.734 151.361 37.4786 151.707 37.2052C151.815 37.1187 151.91 37.0202 152.014 36.9317C152.205 36.7689 152.398 36.606 152.577 36.4311C152.613 36.3949 152.656 36.3667 152.692 36.3305C152.865 36.1576 153.04 35.9746 153.203 35.7917C153.422 35.5544 153.631 35.2991 153.832 35.0437C153.914 34.9351 153.997 34.8165 154.079 34.6959C154.335 34.34 154.572 33.974 154.791 33.582C154.91 33.3729 154.964 33.1537 154.964 32.9345C154.974 32.2871 154.507 31.6557 153.804 31.519L149.175 30.57C149.038 30.5418 148.902 30.5338 148.765 30.5519H148.763C148.363 30.5881 147.989 30.7992 147.734 31.135C147.705 31.1812 147.661 31.2174 147.633 31.2536C147.068 31.9654 146.372 32.4942 145.542 32.8501C145.532 32.8601 145.514 32.8601 145.506 32.8682C145.315 32.9506 145.114 33.023 144.903 33.0873C144.866 33.0974 144.82 33.1054 144.774 33.1155C144.591 33.1698 144.4 33.216 144.209 33.2522C144.118 33.2703 144.018 33.2804 143.925 33.2884C143.771 33.3065 143.624 33.3347 143.459 33.3527C143.222 33.3708 142.974 33.3809 142.719 33.3809C142.701 33.3809 142.673 33.3809 142.655 33.3809C141.249 33.3809 140.053 32.9144 139.068 32.0297C139.058 32.0197 139.05 32.0116 139.039 31.9935C138.838 31.8106 138.647 31.6095 138.474 31.3903C138.292 31.1631 138.127 30.9239 137.972 30.6605L132.728 35.8942L132.702 35.9204V35.9284Z" fill="#5B6DF7"/>
</svg>
