<svg width="139" height="114" viewBox="0 0 139 114" fill="none" xmlns="http://www.w3.org/2000/svg">
<path d="M110.036 12C116.669 21.435 118.876 29.9378 121.028 37.7753" stroke="white" stroke-width="16" stroke-linecap="round" stroke-linejoin="round"/>
<path d="M31.2738 22.8988C49.6669 15.2801 70.3331 15.2801 88.7262 22.8988C92.9708 24.6569 96.3431 28.0292 98.1012 32.2738C105.72 50.6669 105.72 71.3331 98.1012 89.7262C96.3431 93.9708 92.9708 97.3431 88.7262 99.1012C70.3331 106.72 49.6669 106.72 31.2738 99.1012C27.0292 97.3431 23.6569 93.9708 21.8988 89.7262C14.2801 71.3331 14.2801 50.6669 21.8988 32.2738C23.6569 28.0292 27.0292 24.6569 31.2738 22.8988Z" fill="white"/>
<path d="M10.0407 59.8532C22.1801 54.8249 35.8199 54.8249 47.9593 59.8532C50.7607 61.0136 52.9864 63.2393 54.1468 66.0407C59.1751 78.1801 59.1751 91.8199 54.1468 103.959C52.9864 106.761 50.7607 108.986 47.9593 110.147C35.8199 115.175 22.1801 115.175 10.0407 110.147C7.23929 108.986 5.01358 106.761 3.8532 103.959C-1.17512 91.8199 -1.17512 78.1801 3.8532 66.0407C5.01358 63.2393 7.23929 61.0136 10.0407 59.8532Z" fill="#F37CA7"/>
<g clip-path="url(#clip0)">
<path d="M83.5686 64.3572C83.5686 76.3385 73.8554 86.0518 61.874 86.0518C49.8927 86.0518 40.1799 76.3385 40.1799 64.3572C40.1799 52.3758 49.8927 42.6631 61.874 42.6631C73.8554 42.6631 83.5686 52.3758 83.5686 64.3572Z" fill="#FFBA53"/>
<path d="M61.8745 86.9999C49.3884 86.9999 39.2305 76.842 39.2305 64.3569C39.2305 51.8718 49.3884 41.7139 61.8745 41.7139C74.3597 41.7139 84.5175 51.8718 84.5175 64.3569C84.5175 76.842 74.3597 86.9999 61.8745 86.9999ZM61.8745 43.6117C50.4344 43.6117 41.1283 52.9178 41.1283 64.3569C41.1283 75.7964 50.4344 85.1026 61.8745 85.1026C73.3136 85.1026 82.6203 75.7964 82.6203 64.3569C82.6203 52.9178 73.3136 43.6117 61.8745 43.6117Z" fill="#FFBA53"/>
<path d="M57.3162 38.6616H61.1113V44.354H57.3162V38.6616Z" fill="#FFBA53"/>
<path d="M61.1111 45.3025H57.316C56.7916 45.3025 56.3677 44.8786 56.3677 44.3542V38.6618C56.3677 38.1374 56.7916 37.7129 57.316 37.7129H61.1111C61.6355 37.7129 62.0595 38.1374 62.0595 38.6618V44.3542C62.0595 44.8786 61.6355 45.3025 61.1111 45.3025ZM58.265 43.4053H60.1622V39.6102H58.265V43.4053Z" fill="#FFBA53"/>
<path d="M80.7225 64.3572C80.7225 76.3385 71.0097 86.0518 59.0278 86.0518C47.0465 86.0518 37.3337 76.3385 37.3337 64.3572C37.3337 52.3758 47.0465 42.6631 59.0278 42.6631C71.0097 42.6631 80.7225 52.3758 80.7225 64.3572Z" fill="#D7E9FF"/>
<path d="M59.0284 86.9999C46.5422 86.9999 36.3843 76.842 36.3843 64.3569C36.3843 51.8718 46.5422 41.7139 59.0284 41.7139C71.5135 41.7139 81.6713 51.8718 81.6713 64.3569C81.6713 76.842 71.5135 86.9999 59.0284 86.9999ZM59.0284 43.6117C47.5882 43.6117 38.2821 52.9178 38.2821 64.3569C38.2821 75.7964 47.5882 85.1026 59.0284 85.1026C70.4674 85.1026 79.7741 75.7964 79.7741 64.3569C79.7741 52.9178 70.4674 43.6117 59.0284 43.6117Z" fill="#0E65E5"/>
<path d="M80.7225 64.3572C80.7225 76.3385 71.0097 86.0518 59.0278 86.0518C47.0465 86.0518 37.3337 76.3385 37.3337 64.3572C37.3337 52.3758 47.0465 42.6631 59.0278 42.6631C71.0097 42.6631 80.7225 52.3758 80.7225 64.3572Z" fill="white"/>
<path d="M59.0284 86.9999C46.5422 86.9999 36.3843 76.842 36.3843 64.3569C36.3843 51.8718 46.5422 41.7139 59.0284 41.7139C71.5135 41.7139 81.6713 51.8718 81.6713 64.3569C81.6713 76.842 71.5135 86.9999 59.0284 86.9999ZM59.0284 43.6117C47.5882 43.6117 38.2821 52.9178 38.2821 64.3569C38.2821 75.7964 47.5882 85.1026 59.0284 85.1026C70.4674 85.1026 79.7741 75.7964 79.7741 64.3569C79.7741 52.9178 70.4674 43.6117 59.0284 43.6117Z" fill="#FFBA53"/>
<path d="M77.0962 64.3569C77.0962 74.3362 69.0071 82.4253 59.0278 82.4253C49.0491 82.4253 40.9595 74.3362 40.9595 64.3569C40.9595 54.3782 49.0491 46.2886 59.0278 46.2886C69.0071 46.2886 77.0962 54.3782 77.0962 64.3569Z" fill="white"/>
<path d="M59.0283 83.3738C48.5415 83.3738 40.0105 74.8428 40.0105 64.3571C40.0105 53.8713 48.5415 45.3403 59.0283 45.3403C69.5141 45.3403 78.045 53.8713 78.045 64.3571C78.045 74.8428 69.5141 83.3738 59.0283 83.3738ZM59.0283 47.2376C49.5886 47.2376 41.9083 54.9174 41.9083 64.3571C41.9083 73.7973 49.5886 81.4765 59.0283 81.4765C68.4685 81.4765 76.1478 73.7973 76.1478 64.3571C76.1478 54.9174 68.468 47.2376 59.0283 47.2376Z" fill="#FFBA53"/>
<path d="M60.2298 64.6454C60.2298 65.3696 59.643 65.9559 58.9194 65.9559C58.1952 65.9559 57.6084 65.3696 57.6084 64.6454C57.6084 63.9218 58.1952 63.335 58.9194 63.335C59.643 63.335 60.2298 63.9218 60.2298 64.6454Z" fill="white"/>
<path d="M58.9191 66.905C57.6727 66.905 56.6592 65.8915 56.6592 64.6451C56.6592 63.3993 57.6727 62.3857 58.9191 62.3857C60.1649 62.3857 61.1784 63.3993 61.1784 64.6451C61.1784 65.8915 60.1649 66.905 58.9191 66.905ZM58.9191 64.283C58.7188 64.283 58.557 64.4448 58.557 64.6451C58.557 64.8449 58.7193 65.0072 58.9191 65.0072C59.1189 65.0072 59.2812 64.8449 59.2812 64.6451C59.2812 64.4448 59.1189 64.283 58.9191 64.283Z" fill="#FFBA53"/>
<path d="M58.919 65.5936C58.6764 65.5936 58.4332 65.5008 58.2481 65.3157L48.2009 55.2685C47.8302 54.8978 47.8302 54.2974 48.2009 53.9266C48.5712 53.5564 49.1716 53.5564 49.5423 53.9266L58.919 63.3039L64.8014 57.4215C65.1716 57.0507 65.772 57.0507 66.1428 57.4215C66.513 57.7917 66.513 58.3927 66.1428 58.7629L59.5895 65.3157C59.4044 65.5013 59.1617 65.5936 58.919 65.5936Z" fill="#5B6DF7"/>
<path d="M59.2133 83.2503C58.6889 83.2503 58.2649 82.8263 58.2649 82.3019V76.6096C58.2649 76.0852 58.6889 75.6606 59.2133 75.6606C59.7377 75.6606 60.1622 76.0852 60.1622 76.6096V82.3019C60.1622 82.8263 59.7377 83.2503 59.2133 83.2503Z" fill="#FFBA53"/>
<path d="M59.2133 52.8919C58.6889 52.8919 58.2649 52.4679 58.2649 51.9435V46.2512C58.2649 45.7268 58.6889 45.3022 59.2133 45.3022C59.7377 45.3022 60.1622 45.7268 60.1622 46.2512V51.9435C60.1622 52.4679 59.7377 52.8919 59.2133 52.8919Z" fill="#FFBA53"/>
<path d="M76.2905 66.1736H71.5471C71.0227 66.1736 70.5981 65.7491 70.5981 65.2247C70.5981 64.7003 71.0227 64.2764 71.5471 64.2764H76.2905C76.8149 64.2764 77.2389 64.7003 77.2389 65.2247C77.2389 65.7491 76.8149 66.1736 76.2905 66.1736Z" fill="#FFBA53"/>
<path d="M46.8802 66.1736H41.1884C40.664 66.1736 40.2395 65.7491 40.2395 65.2247C40.2395 64.7003 40.664 64.2764 41.1884 64.2764H46.8802C47.4046 64.2764 47.8291 64.7003 47.8291 65.2247C47.8291 65.7491 47.4046 66.1736 46.8802 66.1736Z" fill="#FFBA53"/>
<path d="M73.131 41.2877C73.0865 41.2877 73.0404 41.285 72.9948 41.2774C72.4758 41.2036 72.1164 40.7215 72.1919 40.2037L72.9199 35.1622C72.9937 34.6443 73.4747 34.2762 73.9936 34.3587C74.5126 34.4326 74.8719 34.9146 74.797 35.4325L74.0685 40.4745C74.0007 40.9468 73.5952 41.2877 73.131 41.2877Z" fill="#5B6DF7"/>
<path d="M76.5147 44.0487C76.3041 44.0487 76.0918 43.9792 75.9159 43.8359C75.5104 43.5042 75.4491 42.9065 75.7802 42.5005L78.5412 39.1147C78.8723 38.7108 79.4694 38.6467 79.876 38.9784C80.2816 39.3101 80.3429 39.9078 80.0123 40.3133L77.2513 43.6996C77.063 43.9293 76.7905 44.0487 76.5147 44.0487Z" fill="#5B6DF7"/>
<path d="M79.9016 46.8084C79.5134 46.8084 79.1481 46.5685 79.0091 46.182C78.8316 45.6891 79.0862 45.1451 79.5791 44.9676L84.3714 43.2375C84.8665 43.0579 85.4094 43.3146 85.5863 43.8075C85.7644 44.3005 85.5093 44.8444 85.0163 45.0219L80.224 46.752C80.1176 46.7911 80.0085 46.8084 79.9016 46.8084Z" fill="#5B6DF7"/>
<path d="M66.8916 31.8806C66.8916 29.7092 63.3712 27.9487 59.0278 27.9487C54.685 27.9487 51.1646 29.7092 51.1646 31.8806C51.1646 34.052 54.685 35.812 59.0278 35.812C63.3712 35.812 66.8916 34.052 66.8916 31.8806Z" fill="white"/>
<path d="M59.0285 36.7611C54.0043 36.7611 50.2163 34.6629 50.2163 31.8808C50.2163 29.0987 54.0043 27 59.0285 27C64.052 27 67.8401 29.0987 67.8401 31.8808C67.8401 34.6629 64.0515 36.7611 59.0285 36.7611ZM59.0285 28.8973C55.0705 28.8973 52.1136 30.4726 52.1136 31.8808C52.1136 33.289 55.0711 34.8638 59.0285 34.8638C62.9859 34.8638 65.9428 33.289 65.9428 31.8808C65.9428 30.4726 62.9853 28.8973 59.0285 28.8973Z" fill="#FFBA53"/>
<path d="M63.3967 37.8598C63.3967 37.1361 61.4408 36.5493 59.0278 36.5493C56.6153 36.5493 54.6594 37.1361 54.6594 37.8598C54.6594 38.5834 56.6153 39.1702 59.0278 39.1702C61.4408 39.1702 63.3967 38.5834 63.3967 37.8598Z" fill="#FFBA53"/>
<path d="M59.0282 40.1188C58.1401 40.1188 53.7104 40.0097 53.7104 37.8605C53.7104 35.7102 58.1401 35.6006 59.0282 35.6006C59.9158 35.6006 64.3455 35.7102 64.3455 37.8605C64.3455 40.0097 59.9158 40.1188 59.0282 40.1188ZM56.1435 37.8605C56.7417 38.0461 57.7276 38.2215 59.0282 38.2215C60.3289 38.2215 61.3142 38.0461 61.9135 37.8605C61.3142 37.6743 60.3289 37.4979 59.0282 37.4979C57.7276 37.4979 56.7417 37.6743 56.1435 37.8605ZM62.5421 38.1536H62.5514H62.5421Z" fill="#FFBA53"/>
</g>
<defs>
<clipPath id="clip0">
<rect width="60" height="60" fill="white" transform="translate(31 27)"/>
</clipPath>
</defs>
</svg>
