<svg width="142" height="100" viewBox="0 0 142 100" fill="none" xmlns="http://www.w3.org/2000/svg">
<path d="M10.0407 3.8532C22.1801 -1.17512 35.8199 -1.17512 47.9593 3.8532C50.7607 5.01358 52.9864 7.23929 54.1468 10.0407C59.1751 22.1801 59.1751 35.8199 54.1468 47.9593C52.9864 50.7607 50.7607 52.9864 47.9593 54.1468C35.8199 59.1751 22.1801 59.1751 10.0407 54.1468C7.23929 52.9864 5.01358 50.7607 3.8532 47.9593C-1.17512 35.8199 -1.17512 22.1801 3.8532 10.0407C5.01358 7.23929 7.23929 5.01358 10.0407 3.8532Z" fill="#F37CA7"/>
<path d="M132.791 64C132.245 75.5204 128.774 83.5903 125.668 91.1009" stroke="#FFBA53" stroke-width="16" stroke-linecap="round" stroke-linejoin="round"/>
<path d="M42.2738 8.89879C60.6669 1.28012 81.3331 1.28012 99.7262 8.89879C103.971 10.6569 107.343 14.0292 109.101 18.2738C116.72 36.6669 116.72 57.3331 109.101 75.7262C107.343 79.9708 103.971 83.3431 99.7262 85.1012C81.3331 92.7199 60.6669 92.7199 42.2738 85.1012C38.0292 83.3431 34.6569 79.9708 32.8988 75.7262C25.2801 57.3331 25.2801 36.6669 32.8988 18.2738C34.6569 14.0292 38.0292 10.6569 42.2738 8.89879Z" fill="white"/>
<g clip-path="url(#clip0)">
<path d="M52.5854 29.956C54.46 28.8636 58.8502 21.7593 58.8502 21.7593C58.8502 21.7593 50.5047 22.0756 48.6301 23.168C46.7556 24.2598 46.1212 26.6648 47.2135 28.5394C48.3059 30.4139 50.7109 31.0478 52.5854 29.956Z" fill="#9AE593"/>
<path d="M50.6167 31.4709C48.9253 31.4709 47.2766 30.5971 46.3658 29.0327C45.7055 27.9004 45.5257 26.5777 45.86 25.31C46.1949 24.0412 47.003 22.9797 48.1369 22.3189C50.1216 21.1619 57.3788 20.8315 58.8133 20.7776C59.1606 20.7338 59.5169 20.9512 59.6995 21.2636C59.8815 21.5772 59.8765 21.9666 59.686 22.2745C58.9313 23.4967 55.0665 29.6463 53.079 30.8039C52.3047 31.2556 51.455 31.4709 50.6167 31.4709ZM57.0012 22.837C53.9308 23.0314 50.116 23.4383 49.1253 24.0165C48.4449 24.4126 47.9605 25.0493 47.7593 25.8107C47.5587 26.5715 47.6672 27.3655 48.0633 28.0443C48.4589 28.7253 49.0961 29.2097 49.8575 29.4109C50.6161 29.6098 51.4101 29.5047 52.0923 29.1069C53.0835 28.5298 55.3188 25.4117 57.0012 22.837Z" fill="#9AE593"/>
<path d="M44.3054 31.217C43.9666 31.217 43.6384 31.0422 43.4558 30.7298C43.1832 30.2606 43.3411 29.6594 43.8092 29.3863L50.5972 25.4304C51.0686 25.159 51.6659 25.3157 51.9407 25.7838C52.2127 26.253 52.0548 26.8543 51.5867 27.1274L44.7988 31.0833C44.6425 31.1737 44.4728 31.217 44.3054 31.217Z" fill="#63402B"/>
<path d="M50.6086 55.1855C49.8214 53.1643 43.4858 47.7222 43.4858 47.7222C43.4858 47.7222 42.5007 56.0155 43.288 58.0373C44.0752 60.0585 46.3527 61.0592 48.3739 60.272C50.3957 59.4842 51.3959 57.2073 50.6086 55.1855Z" fill="#9AE593"/>
<path d="M46.946 61.524C46.2762 61.524 45.6058 61.3852 44.9725 61.107C43.7717 60.5794 42.8485 59.6157 42.3725 58.3941C41.5386 56.2515 42.3411 49.032 42.5102 47.6064C42.5529 47.2463 42.7912 46.9389 43.1289 46.8074C43.4694 46.6759 43.8498 46.7422 44.1251 46.9771C45.2147 47.9127 50.6895 52.6879 51.5239 54.8282C52.0004 56.0509 51.9717 57.3849 51.4435 58.5869C50.9159 59.7877 49.9522 60.7109 48.7301 61.1863C48.1518 61.4122 47.5489 61.524 46.946 61.524ZM44.2634 49.7181C43.9774 52.78 43.7863 56.6123 44.2027 57.6805C44.4887 58.4143 45.0428 58.9926 45.7631 59.3089C46.4829 59.6258 47.2848 59.6427 48.0164 59.3572C48.7503 59.0712 49.3285 58.5172 49.6449 57.7968C49.9623 57.0753 49.9798 56.2751 49.6937 55.5424C49.2768 54.4725 46.5448 51.7798 44.2634 49.7181Z" fill="#9AE593"/>
<path d="M49.596 64.3907C49.2027 64.3907 48.8329 64.1536 48.6812 63.7653L45.8295 56.4452C45.6328 55.9395 45.8818 55.3703 46.3875 55.1736C46.8926 54.9747 47.4624 55.2264 47.6591 55.7316L50.5108 63.0517C50.7075 63.5568 50.458 64.1266 49.9528 64.3233C49.836 64.3694 49.7151 64.3907 49.596 64.3907Z" fill="#63402B"/>
<path d="M86.3438 29.1179C87.9425 30.5845 96.029 32.6725 96.029 32.6725C96.029 32.6725 93.2537 24.795 91.6551 23.3284C90.0564 21.8618 87.5716 21.9692 86.105 23.5673C84.6384 25.1659 84.7452 27.6507 86.3438 29.1179Z" fill="#9AE593"/>
<path d="M96.0289 33.6537C95.9474 33.6537 95.8654 33.643 95.7839 33.6222C94.3932 33.2637 87.3732 31.3942 85.6807 29.8411C83.6847 28.0103 83.5504 24.8979 85.3812 22.9042C87.2102 20.9094 90.3243 20.7734 92.3191 22.6041C94.0122 24.1584 96.4779 30.9913 96.9555 32.3455C97.0763 32.6872 96.9982 33.0676 96.7532 33.3356C96.5644 33.5407 96.3009 33.6537 96.0289 33.6537ZM87.0079 28.3947C87.8525 29.1696 91.4931 30.3805 94.4505 31.2234C93.3564 28.3503 91.8364 24.8276 90.9913 24.0511C89.7928 22.9542 87.9255 23.0357 86.8275 24.2314C85.7307 25.4283 85.811 27.2956 87.0079 28.3947Z" fill="#9AE593"/>
<path d="M89.413 27.5844C89.1754 27.5844 88.9377 27.499 88.7494 27.3259L82.96 22.0152C82.5599 21.6477 82.5335 21.0274 82.8999 20.6273C83.2668 20.2278 83.8894 20.2008 84.2872 20.5672L90.0767 25.8784C90.4768 26.2453 90.5037 26.8657 90.1374 27.2658C89.9435 27.477 89.6788 27.5844 89.413 27.5844Z" fill="#63402B"/>
<path d="M93.4059 51.0809C92.6535 53.1156 93.7802 61.3909 93.7802 61.3909C93.7802 61.3909 100.021 55.8414 100.774 53.8067C101.527 51.772 100.488 49.512 98.453 48.7596C96.4183 48.0072 94.1589 49.0462 93.4059 51.0809Z" fill="#9AE593"/>
<path d="M93.7801 62.3731C93.666 62.3731 93.5502 62.3528 93.4395 62.3112C93.099 62.1859 92.8557 61.8831 92.8068 61.5229C92.613 60.1007 91.6875 52.8958 92.4837 50.7403H92.4848C92.9394 49.5097 93.8464 48.5308 95.0387 47.9818C96.2294 47.4351 97.5634 47.3828 98.7929 47.8391C101.333 48.778 102.634 51.6084 101.695 54.1466C100.898 56.3021 95.5057 61.17 94.4324 62.1241C94.2504 62.2876 94.0172 62.3731 93.7801 62.3731ZM94.3262 51.4213C93.929 52.4991 94.1852 56.3263 94.5235 59.3831C96.7694 57.2815 99.4548 54.5416 99.8538 53.4656C100.417 51.9416 99.6352 50.2446 98.1124 49.6805C97.3729 49.408 96.5739 49.4377 95.8586 49.767C95.1438 50.0957 94.5993 50.6835 94.3262 51.4213Z" fill="#9AE593"/>
<path d="M96.8951 53.9522C96.7816 53.9522 96.667 53.9331 96.5546 53.891C96.0455 53.7028 95.7853 53.138 95.9741 52.6295L98.7 45.2616C98.8883 44.7525 99.4535 44.4924 99.961 44.6812C100.471 44.8694 100.73 45.4341 100.541 45.9427L97.8156 53.3105C97.67 53.7078 97.2941 53.9522 96.8951 53.9522Z" fill="#63402B"/>
<path d="M71.1986 68.7824C69.0363 68.9633 62.0186 73.4901 62.0186 73.4901C62.0186 73.4901 69.6898 76.7919 71.8515 76.6116C74.0132 76.4317 75.6197 74.5325 75.4394 72.3708C75.259 70.2085 73.3603 68.602 71.1986 68.7824Z" fill="#9AE593"/>
<path d="M71.6947 77.5991C69.2116 77.5991 62.9052 74.9406 61.6296 74.3922C61.297 74.2484 61.07 73.9326 61.0402 73.5713C61.0093 73.2094 61.1812 72.8616 61.4858 72.6638C62.6922 71.8861 68.8261 67.9954 71.1165 67.8038H71.1176C72.4218 67.6863 73.6951 68.101 74.6964 68.9478C75.6978 69.7952 76.3091 70.982 76.4176 72.289C76.5272 73.596 76.1203 74.8665 75.2741 75.8678C74.4262 76.8691 73.24 77.4805 71.9329 77.5895C71.8576 77.5957 71.7778 77.5991 71.6947 77.5991ZM64.1532 73.3111C67.0072 74.4563 70.6012 75.7172 71.7694 75.6329C72.5539 75.5666 73.2652 75.2003 73.7738 74.599C74.2817 73.9989 74.5262 73.2364 74.461 72.4519C74.3947 71.6675 74.0289 70.9555 73.4276 70.4476C72.8269 69.9385 72.0678 69.6918 71.2811 69.7598C70.1371 69.8559 66.7779 71.7108 64.1532 73.3111Z" fill="#9AE593"/>
<path d="M70.9645 73.7262C70.4593 73.7262 70.0295 73.3385 69.9873 72.8254C69.9424 72.2854 70.3436 71.8106 70.8841 71.7657L78.7133 71.1127C79.2601 71.0554 79.7293 71.4695 79.7731 72.0095C79.8186 72.549 79.4174 73.0238 78.8769 73.0688L71.0471 73.7223C71.019 73.7251 70.9915 73.7262 70.9645 73.7262Z" fill="#63402B"/>
<path d="M88.8943 46.4437C88.8943 56.3419 80.8707 64.3655 70.9726 64.3655C61.0744 64.3655 53.0508 56.3419 53.0508 46.4437C53.0508 36.5461 61.0744 28.522 70.9726 28.522C80.8707 28.522 88.8943 36.5461 88.8943 46.4437Z" fill="#5B6DF7"/>
<path d="M70.9724 65.348C60.5488 65.348 52.0684 56.8676 52.0684 46.444C52.0684 36.021 60.5488 27.54 70.9724 27.54C81.3959 27.54 89.8763 36.021 89.8763 46.444C89.8763 56.8676 81.3959 65.348 70.9724 65.348ZM70.9724 29.5045C61.6316 29.5045 54.0323 37.1033 54.0323 46.444C54.0323 55.7848 61.6316 63.3841 70.9724 63.3841C80.3131 63.3841 87.9119 55.7848 87.9119 46.444C87.9119 37.1033 80.3131 29.5045 70.9724 29.5045Z" fill="#5B6DF7"/>
<path d="M65.1439 33.6273C64.7612 33.6273 64.3977 33.4025 64.2392 33.0277C64.0285 32.5282 64.2617 31.9516 64.7612 31.7409C68.0198 30.362 71.729 30.1164 75.1393 31.0363C75.663 31.1779 75.9726 31.7167 75.8315 32.2404C75.6888 32.7653 75.1437 33.0698 74.6273 32.9327C71.6391 32.1236 68.3828 32.341 65.5266 33.5497C65.4018 33.602 65.2714 33.6273 65.1439 33.6273Z" fill="white"/>
<path d="M70.9726 60.4378C61.7391 60.4378 54.1426 53.4527 53.1632 44.48C53.0929 45.1256 53.0508 45.7797 53.0508 46.4439C53.0508 56.342 61.0744 64.3656 70.9726 64.3656C80.8707 64.3656 88.8943 56.342 88.8943 46.4439C88.8943 45.7797 88.8522 45.1256 88.7819 44.48C87.8025 53.4527 80.206 60.4378 70.9726 60.4378Z" fill="#5B6DF7"/>
<path d="M70.9724 65.3477C60.5488 65.3477 52.0684 56.8672 52.0684 46.4437C52.0684 45.7784 52.1077 45.1013 52.1875 44.3725C52.242 43.8746 52.6629 43.4976 53.1635 43.4976C53.6653 43.4976 54.0851 43.8757 54.1401 44.373C55.0769 52.9715 62.3138 59.4554 70.9724 59.4554C79.6309 59.4554 86.8678 52.972 87.8046 44.373C87.8596 43.8757 88.2794 43.4976 88.7812 43.4976C89.2818 43.4976 89.7027 43.8746 89.7572 44.3725C89.837 45.1013 89.8763 45.7784 89.8763 46.4437C89.8763 56.8672 81.3959 65.3477 70.9724 65.3477ZM55.5708 53.4952C58.2511 59.3262 64.1462 63.3832 70.9718 63.3832C77.798 63.3832 83.693 59.3262 86.3734 53.4952C82.9344 58.3226 77.2928 61.4193 70.9718 61.4193C64.6514 61.4193 59.0097 58.3226 55.5708 53.4952Z" fill="#5B6DF7"/>
<path d="M53.7617 41.4481C55.3053 41.7745 56.7517 42.2763 57.1338 43.0411C58.0413 44.8561 59.8563 44.8561 61.6713 43.0411C63.4857 41.2267 66.2082 39.4117 63.4857 36.6892C62.1275 35.3305 61.6808 33.0895 61.574 31.1841C57.8356 33.4913 55.012 37.1348 53.7617 41.4481Z" fill="#9AE593"/>
<path d="M59.0569 45.384C58.8984 45.384 58.7411 45.3716 58.5866 45.3458C57.606 45.1867 56.7772 44.5237 56.2557 43.4802C56.2524 43.4746 55.9478 42.9143 53.5591 42.4081C53.2911 42.3519 53.0601 42.1867 52.9202 41.9518C52.7792 41.718 52.7426 41.4359 52.8185 41.1741C54.1255 36.6658 57.0514 32.8212 61.0579 30.3488C61.3534 30.1656 61.7209 30.1543 62.0283 30.3134C62.3357 30.4735 62.5346 30.7831 62.5543 31.1293C62.6425 32.6942 62.9954 34.8087 64.1804 35.9943C65.1509 36.9648 65.6347 37.9729 65.6189 38.9922C65.5942 40.683 64.2423 41.9552 63.0487 43.0784C62.8161 43.2987 62.5835 43.5167 62.3649 43.7353C61.2899 44.8108 60.1324 45.384 59.0569 45.384ZM55.0201 40.7437C56.6513 41.2011 57.6122 41.8012 58.0123 42.6019C58.2511 43.0796 58.55 43.3498 58.9012 43.4077C59.4738 43.4987 60.2133 43.1099 60.9764 42.3468C61.2085 42.1147 61.4551 41.8827 61.7024 41.6489C62.6565 40.751 63.6427 39.8227 63.6551 38.9624C63.6624 38.4949 63.3724 37.9633 62.7919 37.3828C61.7664 36.3579 61.0905 34.861 60.773 32.9195C58.1303 34.9127 56.1327 37.6256 55.0201 40.7437Z" fill="#5B6DF7"/>
<path d="M66.2084 60.2823C66.2084 60.2823 68.0228 54.8379 66.2084 53.9305C64.3934 53.023 62.5784 53.9305 61.6709 51.208C60.7634 48.4861 61.6709 47.5786 64.3934 46.6711C67.1159 45.7636 70.7453 46.6711 71.6528 50.301C72.5603 53.9305 70.7458 55.7454 69.8383 59.3754C69.1775 62.0159 66.2084 60.2823 66.2084 60.2823Z" fill="#9AE593"/>
<path d="M68.1155 61.8215C66.9417 61.8215 65.8645 61.2197 65.7128 61.1303C65.3121 60.8966 65.1301 60.4128 65.2756 59.9728C66.1072 57.4734 66.2415 55.0448 65.7689 54.8088C65.3093 54.5784 64.8216 54.493 64.3052 54.4019C63.0723 54.1845 61.5377 53.9148 60.7398 51.5193C59.5749 48.0231 61.1551 46.7155 64.0826 45.7405C65.9589 45.114 68.052 45.2713 69.6776 46.1642C71.1583 46.9773 72.1709 48.3248 72.6058 50.0617C73.2986 52.8331 72.5631 54.7031 71.7848 56.6839C71.4314 57.5824 71.0661 58.5118 70.7902 59.6137C70.4823 60.8477 69.767 61.3809 69.2208 61.6113C68.8595 61.7631 68.4824 61.8215 68.1155 61.8215ZM66.2078 60.2824H66.2174H66.2078ZM67.4036 59.7328C67.789 59.852 68.1987 59.9115 68.4605 59.7997C68.5319 59.7694 68.7505 59.6761 68.8853 59.1372C69.1916 57.9117 69.5978 56.8772 69.9564 55.9641C70.7015 54.0687 71.2403 52.6993 70.7009 50.5376C70.398 49.3284 69.7361 48.4366 68.7325 47.8859C67.5783 47.2521 66.0696 47.1476 64.7041 47.6022C62.2547 48.4181 61.94 48.9114 62.602 50.8973C63.0307 52.1824 63.537 52.2717 64.6457 52.4673C65.2486 52.574 65.9313 52.6937 66.6467 53.0517C68.6819 54.0693 67.9649 57.7526 67.4036 59.7328Z" fill="#5B6DF7"/>
<path d="M80.2465 31.105C77.538 33.7533 74.5942 37.0641 76.19 37.5962C78.9125 38.5032 80.7275 39.4107 80.7275 39.4107C80.7275 39.4107 79.82 42.1332 77.0975 42.1332C74.375 42.1332 70.7456 42.1332 70.7456 43.0406C70.7456 43.9481 76.19 47.5776 76.19 48.4851C76.19 49.3926 77.3633 53.2883 78.005 53.9295C78.9125 54.837 81.635 55.7445 82.5425 52.1145C83.4494 48.4851 82.5425 45.7626 84.3569 44.8551C85.3717 44.3477 86.6692 41.8786 87.6166 39.7995C86.164 36.1634 83.5584 33.1121 80.2465 31.105Z" fill="#9AE593"/>
<path d="M79.9873 55.7239C78.9089 55.7239 77.8964 55.2097 77.3108 54.6242C76.4702 53.7842 75.334 49.9665 75.2183 48.6747C74.9199 48.2515 73.6769 47.2159 72.8397 46.518C70.56 44.6193 69.7632 43.8809 69.7632 43.0414C69.7632 41.2394 72.4137 41.1512 77.0979 41.1512C78.2639 41.1512 78.987 40.4561 79.3866 39.875C78.6128 39.5356 77.3856 39.0305 75.8796 38.5276C75.3189 38.3404 74.9244 37.9224 74.8002 37.3807C74.5844 36.4429 74.9811 34.8807 79.5596 30.4039C79.8816 30.0915 80.3727 30.0359 80.7543 30.2657C84.2522 32.3841 87.0129 35.6404 88.5289 39.4362C88.629 39.6857 88.6222 39.9633 88.511 40.2083C86.569 44.4681 85.4614 45.4021 84.7967 45.7347C84.232 46.0168 84.1359 46.7085 84.0207 48.4673C83.951 49.5434 83.8634 50.8819 83.4942 52.3552C82.9351 54.5944 81.7444 55.3615 80.8436 55.6098C80.5576 55.6885 80.2699 55.7239 79.9873 55.7239ZM72.1508 43.3213C72.67 43.8208 73.4898 44.5035 74.0961 45.0093C76.3753 46.908 77.1726 47.6463 77.1726 48.4858C77.1726 49.2029 78.2543 52.7058 78.7095 53.247C78.9927 53.5302 79.7097 53.8819 80.3199 53.7173C81.0392 53.5178 81.4078 52.6064 81.5898 51.8776C81.9146 50.5762 81.9927 49.3883 82.0607 48.3392C82.1793 46.5141 82.2928 44.7896 83.9179 43.9776C84.01 43.9315 84.8405 43.4325 86.5459 39.779C85.2569 36.7755 83.0935 34.1733 80.3795 32.3549C77.675 35.0645 76.9703 36.2984 76.786 36.7609C79.3826 37.6459 81.0931 38.4967 81.1667 38.5332C81.6039 38.7518 81.814 39.2581 81.659 39.7222C81.6123 39.8604 80.4885 43.1151 77.0979 43.1151C75.7982 43.1151 73.3668 43.1151 72.1508 43.3213Z" fill="#5B6DF7"/>
</g>
<defs>
<clipPath id="clip0">
<rect width="60" height="60" fill="white" transform="translate(42 19)"/>
</clipPath>
</defs>
</svg>
