<svg width="1440" height="840" viewBox="0 0 1440 840" fill="none" xmlns="http://www.w3.org/2000/svg">
<path opacity="0.2" d="M1441 24.3872C1355.56 -23.8368 1237.14 1.71808 1178.13 81.1096C1148.02 121.628 1130.69 174.92 1087.84 200.881C1011.12 247.35 913.109 175.961 825.613 193.771C761.201 206.881 716.51 264.714 674.899 316.587C633.289 368.46 580.525 422.198 514.84 421.484C465.651 420.948 420.844 389.126 371.665 387.748C318.736 386.27 270.383 420.849 237.74 463.401C205.096 505.953 184.461 556.557 158.599 603.709C127.996 659.51 89.7172 710.917 45.2405 755.948C4.82483 796.873 -46.5302 834.496 -103.326 830.431C-140.73 827.753 -186.586 810.102 -210 840H1441V24.3872Z" fill="url(#paint0_linear)"/>
<defs>
<linearGradient id="paint0_linear" x1="-278.641" y1="840" x2="1385" y2="840" gradientUnits="userSpaceOnUse">
<stop stop-color="white"/>
<stop offset="1" stop-color="white" stop-opacity="0"/>
</linearGradient>
</defs>
</svg>
